# xmcd
#
# Track frame offsets:
#	150
#	9909
#	27764
#	43848
#	60268
#	77765
#	96672
#	112029
#	127291
#	145046
#	162729
#
# Disc length: 2341 seconds
#
# Revision: 1
# Processed by: cddbd v1.5.2PL0 Copyright (c) Steve Scherf et al.
# Submitted via: audiograbber 1.83.01
#
DISCID=9509230b
DTITLE=Alejandra Burgos - The things I´ve done
DYEAR=1900
DGENRE=
TTITLE0=Its not the answer
TTITLE1=Silence of love
TTITLE2=The things Ive done
TTITLE3=Sweet talking baby
TTITLE4=Just to see you
TTITLE5=Once again
TTITLE6=Like a white bird
TTITLE7=Oh darling
TTITLE8=Fallling slowly
TTITLE9=Vagabundos
TTITLE10=Hidden track
EXTD=
EXTT0=
EXTT1=
EXTT2=
EXTT3=
EXTT4=
EXTT5=
EXTT6=
EXTT7=
EXTT8=
EXTT9=
EXTT10=
PLAYORDER=
